<svg width="341" height="40" viewBox="0 0 341 40" fill="none" xmlns="http://www.w3.org/2000/svg">
<path d="M10.76 28.12H15C14.6267 27.1867 14.2933 26.3733 14 25.68C13.68 24.96 13.3067 24.0933 12.88 23.08L10.76 28.12ZM24.76 18.52H29C28.6267 17.5867 28.28 16.7733 27.96 16.08C27.6667 15.36 27.3067 14.4933 26.88 13.48L24.76 18.52ZM0.68 39.08C1.45333 37.2133 2.26667 35.2533 3.12 33.2C3.97333 31.1733 4.78667 29.2533 5.56 27.44C6.14667 26.0533 6.74667 24.6267 7.36 23.16C7.97333 21.6667 8.6 20.1733 9.24 18.68C9.85333 17.16 10.48 15.6533 11.12 14.16C11.7333 12.6667 12.32 11.2133 12.88 9.8C13.6533 11.72 14.4667 13.7067 15.32 15.76C16.2 17.7867 17.0533 19.7867 17.88 21.76L19.56 17.84C20.1467 16.4533 20.7467 15.0267 21.36 13.56C21.9733 12.0667 22.5867 10.5733 23.2 9.08C23.84 7.56 24.4667 6.05333 25.08 4.56C25.72 3.06667 26.32 1.61333 26.88 0.199999C27.4133 1.48 27.96 2.8 28.52 4.16C29.1067 5.52 29.68 6.88 30.24 8.24C30.8267 9.6 31.4 10.9467 31.96 12.28C32.52 13.6133 33.0667 14.8933 33.6 16.12L39.24 29.48H33.56L31.12 23.52H22.64L20.68 28.32L25.24 39.08H19.56L17.12 33.12H8.64L6.2 39.08H0.68ZM19.88 29L22.32 23.04H31.44L33.88 29H38.52C37.5333 26.6533 36.5467 24.3467 35.56 22.08C34.6 19.7867 33.64 17.5067 32.68 15.24C31.72 12.9733 30.76 10.7067 29.8 8.44C28.84 6.14667 27.8667 3.81333 26.88 1.44C24.9867 6.10667 23.08 10.7067 21.16 15.24C19.2667 19.7467 17.3467 24.3333 15.4 29H19.88ZM26.88 12.16L29.68 19H24.08L26.88 12.16ZM33.1775 33.96H42.9775V39.08H27.9775V10.72H33.1775V33.96ZM47.1775 24.36H56.9775V29.48H41.9775V1.12H47.1775V24.36ZM46.6975 1.6H42.4575V29H56.4975V24.84H46.6975V1.6ZM49.9353 33.96H59.7353V39.08H44.7353V10.72H49.9353V33.96ZM63.9353 24.36H73.7353V29.48H58.7353V1.12H63.9353V24.36ZM63.4553 1.6H59.2153V29H73.2553V24.84H63.4553V1.6ZM74.3794 33.64C75.4994 33.2933 76.446 32.7467 77.2194 32C78.0194 31.28 78.6594 30.44 79.1394 29.48H77.0594V17.84C76.446 17.3867 75.766 17.0267 75.0194 16.76C74.2727 16.4667 73.446 16.2933 72.5394 16.24C72.246 16.2133 71.9527 16.2 71.6594 16.2C71.3394 16.2 71.0327 16.2 70.7394 16.2H68.1794V33.92H72.5794C72.8727 33.92 73.1794 33.88 73.4994 33.8C73.7927 33.7467 74.086 33.68 74.3794 33.6V33.64ZM94.1794 15.36C94.1794 14.16 94.006 13.0533 93.6594 12.04C93.3127 11 92.806 10.0933 92.1394 9.32C91.4994 8.52 90.6994 7.89333 89.7394 7.44C88.806 6.96 87.7394 6.69333 86.5394 6.64C86.246 6.61333 85.9394 6.6 85.6194 6.6C85.326 6.6 85.0327 6.6 84.7394 6.6H82.1794V15.52C83.166 16.64 83.9394 17.9467 84.4994 19.44C85.0594 20.9067 85.366 22.5333 85.4194 24.32H86.5794C86.8727 24.32 87.166 24.2933 87.4594 24.24C87.7794 24.16 88.086 24.08 88.3794 24V24.04C89.3127 23.7733 90.1394 23.3467 90.8594 22.76C91.5794 22.1733 92.1794 21.4933 92.6594 20.72C93.166 19.92 93.5394 19.0667 93.7794 18.16C94.046 17.2533 94.1794 16.32 94.1794 15.36ZM99.4594 15.48C99.4594 17.6933 99.1127 19.6667 98.4194 21.4C97.726 23.1333 96.7527 24.6 95.4994 25.8C94.246 27 92.7394 27.92 90.9794 28.56C89.2194 29.2 87.2594 29.52 85.0994 29.52H84.8994C84.0727 32.5867 82.446 34.9467 80.0194 36.6C77.6194 38.28 74.646 39.12 71.0994 39.12H66.3794C66.166 39.12 65.966 39.1067 65.7794 39.08C65.5927 39.08 65.3927 39.08 65.1794 39.08H63.0594V11.04H70.0994C70.2594 11.04 70.4327 11.04 70.6194 11.04C70.7794 11.0133 70.9394 11 71.0994 11C73.286 11 75.2727 11.3467 77.0594 12.04V1.44H84.0994C84.2594 1.44 84.4194 1.44 84.5794 1.44C84.766 1.41333 84.9394 1.4 85.0994 1.4C87.2327 1.4 89.1794 1.73333 90.9394 2.4C92.6994 3.04 94.206 3.97333 95.4594 5.2C96.7394 6.42667 97.726 7.90667 98.4194 9.64C99.1127 11.3733 99.4594 13.32 99.4594 15.48ZM98.9794 15.48C98.9794 13.4 98.646 11.52 97.9794 9.84C97.3127 8.16 96.366 6.73333 95.1394 5.56C93.9127 4.36 92.446 3.45333 90.7394 2.84C89.0594 2.2 87.1794 1.88 85.0994 1.88C84.7794 1.88 84.446 1.89333 84.0994 1.92C83.7794 1.92 83.4727 1.92 83.1794 1.92H77.5394V29H79.1794C79.5794 29 79.966 29 80.3394 29C80.7127 29.0267 81.0727 29.04 81.4194 29.04H85.0994C87.1794 29.04 89.0727 28.7333 90.7794 28.12C92.486 27.5067 93.9394 26.6267 95.1394 25.48C96.366 24.3067 97.3127 22.88 97.9794 21.2C98.646 19.52 98.9794 17.6133 98.9794 15.48ZM94.6594 15.36C94.6594 16.3467 94.526 17.32 94.2594 18.28C93.9927 19.24 93.5927 20.1333 93.0594 20.96C92.5527 21.7867 91.9127 22.5067 91.1394 23.12C90.366 23.7333 89.486 24.1867 88.4994 24.48C88.206 24.56 87.886 24.64 87.5394 24.72C87.2194 24.7733 86.8994 24.8 86.5794 24.8H81.6994V6.12H84.7394C85.0327 6.12 85.3394 6.12 85.6594 6.12C85.9794 6.12 86.286 6.13333 86.5794 6.16H86.5394C87.8194 6.21333 88.9527 6.49333 89.9394 7C90.9527 7.48 91.806 8.13333 92.4994 8.96C93.2194 9.76 93.7527 10.72 94.0994 11.84C94.4727 12.9333 94.6594 14.1067 94.6594 15.36ZM94.8553 21.6H103.695V15.84H94.8553V21.6ZM94.8553 33.96H106.655V39.08H89.6953V10.72H103.695V1.12H120.655V6.24H108.855V12H118.055V17.2H108.855V24.36H120.655V29.48H103.695V26.8H94.8553V33.96ZM108.375 16.72H117.575V12.48H108.375V5.76H120.175V1.6H104.175V29H120.175V24.84H108.375V16.72ZM119.079 15.68C118.306 15.68 117.653 15.92 117.119 16.4C116.559 16.8533 116.279 17.4667 116.279 18.24C116.279 18.6933 116.399 19.1067 116.639 19.48C116.853 19.8267 117.159 20.1733 117.559 20.52C117.959 20.84 118.426 21.1467 118.959 21.44C119.466 21.7333 119.999 22.0267 120.559 22.32C121.119 22.64 121.679 22.96 122.239 23.28C122.799 23.6 123.333 23.9467 123.839 24.32C124.186 24.08 124.586 23.7867 125.039 23.44C125.493 23.0933 125.906 22.7733 126.279 22.48V22.52L127.039 21.92L127.679 21.56C128.293 22.5733 129.026 23.2933 129.879 23.72C130.759 24.1467 131.586 24.36 132.359 24.36C133.373 24.36 134.213 24.12 134.879 23.64C135.546 23.1333 135.879 22.3467 135.879 21.28C135.879 20.8 135.759 20.3733 135.519 20C135.279 19.6 134.946 19.2267 134.519 18.88C134.093 18.5067 133.599 18.16 133.039 17.84C132.506 17.4933 131.946 17.16 131.359 16.84V16.88C130.559 16.4533 129.759 16 128.959 15.52C128.186 15.0133 127.479 14.4533 126.839 13.84C126.199 13.2 125.679 12.48 125.279 11.68C124.879 10.88 124.679 9.94667 124.679 8.88C124.679 7.6 124.906 6.48 125.359 5.52C125.813 4.53333 126.426 3.72 127.199 3.08C127.973 2.44 128.866 1.96 129.879 1.64C130.919 1.32 132.026 1.16 133.199 1.16C134.373 1.16 135.653 1.46667 137.039 2.08C138.426 2.69333 139.653 3.56 140.719 4.68C140.479 5.02667 140.293 5.29333 140.159 5.48C140.026 5.64 139.866 5.82667 139.679 6.04L138.959 6.96L137.559 8.52C136.839 7.8 136.106 7.21333 135.359 6.76C134.613 6.30667 133.853 6.08 133.079 6.08C132.306 6.08 131.639 6.32 131.079 6.8C130.546 7.25333 130.279 7.86667 130.279 8.64C130.279 9.09333 130.386 9.50667 130.599 9.88C130.839 10.2267 131.159 10.5733 131.559 10.92C131.959 11.24 132.413 11.5467 132.919 11.84C133.453 12.1333 133.999 12.4267 134.559 12.72C135.386 13.1733 136.199 13.6533 136.999 14.16C137.826 14.6667 138.559 15.24 139.199 15.88C139.866 16.4933 140.399 17.2133 140.799 18.04C141.199 18.84 141.399 19.7733 141.399 20.84C141.399 22.2267 141.173 23.4533 140.719 24.52C140.266 25.5867 139.626 26.48 138.799 27.2C137.973 27.92 136.999 28.4667 135.879 28.84C134.759 29.2133 133.533 29.4 132.199 29.4C131.293 29.4 130.386 29.2667 129.479 29C128.599 28.76 127.733 28.3733 126.879 27.84C127.039 28.2133 127.159 28.6133 127.239 29.04C127.346 29.4667 127.399 29.9333 127.399 30.44C127.399 31.8267 127.173 33.0533 126.719 34.12C126.266 35.1867 125.626 36.08 124.799 36.8C123.973 37.52 122.999 38.0667 121.879 38.44C120.759 38.8133 119.533 39 118.199 39C116.626 39 115.079 38.6133 113.559 37.84C112.013 37.0667 110.679 35.8267 109.559 34.12C109.879 33.9067 110.306 33.5867 110.839 33.16C111.373 32.76 111.853 32.4 112.279 32.08V32.12L113.039 31.52L113.679 31.16C114.293 32.1733 115.039 32.8933 115.919 33.32C116.773 33.7467 117.586 33.96 118.359 33.96C119.373 33.96 120.213 33.7067 120.879 33.2C121.546 32.72 121.879 31.9467 121.879 30.88C121.879 30.4 121.759 29.96 121.519 29.56C121.279 29.1867 120.946 28.8267 120.519 28.48C120.093 28.1067 119.613 27.76 119.079 27.44C118.519 27.0933 117.946 26.76 117.359 26.44V26.48C116.559 26.0533 115.773 25.6 114.999 25.12C114.199 24.6133 113.479 24.0533 112.839 23.44C112.199 22.8 111.679 22.08 111.279 21.28C110.879 20.48 110.679 19.5467 110.679 18.48C110.679 17.2 110.906 16.08 111.359 15.12C111.813 14.1333 112.426 13.32 113.199 12.68C113.973 12.04 114.879 11.56 115.919 11.24C116.933 10.92 118.026 10.76 119.199 10.76C120.373 10.76 121.653 11.0667 123.039 11.68C124.426 12.2933 125.653 13.16 126.719 14.28C126.479 14.6267 126.293 14.8933 126.159 15.08C126.026 15.24 125.866 15.4267 125.679 15.64L124.959 16.56L123.559 18.12C122.839 17.4 122.106 16.8133 121.359 16.36C120.613 15.9067 119.853 15.68 119.079 15.68ZM133.079 5.6C133.906 5.6 134.679 5.81333 135.399 6.24C136.146 6.64 136.853 7.17333 137.519 7.84L138.599 6.64H138.559L139.319 5.72V5.76C139.533 5.52 139.679 5.33333 139.759 5.2C139.866 5.06667 139.986 4.90667 140.119 4.72C139.186 3.73333 138.079 2.97333 136.799 2.44C135.519 1.90667 134.319 1.64 133.199 1.64C132.106 1.64 131.066 1.8 130.079 2.12C129.119 2.41333 128.266 2.86667 127.519 3.48C126.799 4.06667 126.226 4.81333 125.799 5.72C125.373 6.62667 125.159 7.68 125.159 8.88C125.159 9.86667 125.346 10.7333 125.719 11.48C126.119 12.2267 126.626 12.9067 127.239 13.52C127.853 14.1067 128.533 14.64 129.279 15.12C130.053 15.5733 130.826 16.0133 131.599 16.44C132.239 16.7867 132.839 17.1333 133.399 17.48C133.986 17.8267 134.493 18.2 134.919 18.6C135.373 18.9733 135.719 19.3867 135.959 19.84C136.226 20.2667 136.359 20.7467 136.359 21.28C136.359 22.5067 135.986 23.4133 135.239 24C134.493 24.56 133.533 24.84 132.359 24.84C131.506 24.84 130.626 24.64 129.719 24.24C128.813 23.84 128.079 23.16 127.519 22.2L127.199 22.4C126.666 22.8 126.133 23.2 125.599 23.6C125.093 24 124.639 24.3467 124.239 24.64C125.199 26.1333 126.386 27.2267 127.799 27.92C129.239 28.5867 130.706 28.92 132.199 28.92C133.453 28.92 134.613 28.7467 135.679 28.4C136.746 28.0533 137.666 27.5467 138.439 26.88C139.213 26.1867 139.813 25.3333 140.239 24.32C140.693 23.3067 140.919 22.1467 140.919 20.84C140.919 19.8267 140.719 18.9467 140.319 18.2C139.946 17.4267 139.439 16.7467 138.799 16.16C138.186 15.5467 137.493 15 136.719 14.52C135.946 14.04 135.159 13.5733 134.359 13.12C133.746 12.8 133.159 12.4933 132.599 12.2C132.066 11.88 131.586 11.5467 131.159 11.2C130.733 10.8267 130.399 10.44 130.159 10.04C129.919 9.61333 129.799 9.14667 129.799 8.64C129.799 7.73333 130.119 7 130.759 6.44C131.426 5.88 132.199 5.6 133.079 5.6ZM136.027 21.6H144.867V15.84H136.027V21.6ZM136.027 33.96H147.827V39.08H130.867V10.72H144.867V1.12H161.827V6.24H150.027V12H159.227V17.2H150.027V24.36H161.827V29.48H144.867V26.8H136.027V33.96ZM149.547 16.72H158.747V12.48H149.547V5.76H161.347V1.6H145.347V29H161.347V24.84H149.547V16.72ZM170.92 14.24H171.72C172.2 14.2667 172.68 14.2933 173.16 14.32C173.64 14.32 174.133 14.32 174.64 14.32C175.973 14.32 177.013 14.0133 177.76 13.4C178.533 12.76 178.92 11.7467 178.92 10.36C178.92 9.05333 178.533 8.04 177.76 7.32C177.013 6.57333 175.973 6.2 174.64 6.2H170.92V14.24ZM156.92 23.84H157.72C158.2 23.8667 158.68 23.8933 159.16 23.92C159.64 23.92 160.133 23.92 160.64 23.92C161.973 23.92 163.027 23.6133 163.8 23C164.547 22.36 164.92 21.3467 164.92 19.96C164.92 18.6533 164.547 17.64 163.8 16.92C163.027 16.1733 161.973 15.8 160.64 15.8H156.92V23.84ZM160.64 10.72C162.64 10.72 164.373 11.1467 165.84 12V1.12H174.64C176 1.12 177.253 1.33333 178.4 1.76C179.573 2.16 180.573 2.74667 181.4 3.52C182.253 4.29333 182.92 5.24 183.4 6.36C183.88 7.48 184.12 8.76 184.12 10.2C184.12 12.7067 183.56 14.6933 182.44 16.16C181.32 17.6267 179.573 18.6267 177.2 19.16L185.04 29.48H178.96L171.24 19.4H170.92V29.48H165.84V27.84C165.44 28.0533 165.027 28.24 164.6 28.4C164.173 28.5333 163.707 28.6533 163.2 28.76L171.04 39.08H164.96L157.24 29H156.92V39.08H151.84V10.72H160.64ZM166.32 1.6V29H170.44V18.92H171.48L179.2 29H184.08L176.32 18.84C181.2 18.0133 183.64 15.1333 183.64 10.2C183.64 8.84 183.413 7.64 182.96 6.6C182.507 5.53333 181.88 4.62667 181.08 3.88C180.28 3.13333 179.333 2.57333 178.24 2.2C177.147 1.8 175.947 1.6 174.64 1.6H166.32ZM170.44 5.72H174.64C176.107 5.72 177.267 6.13333 178.12 6.96C178.973 7.76 179.4 8.89333 179.4 10.36C179.4 11.9067 178.973 13.04 178.12 13.76C177.267 14.4533 176.107 14.8 174.64 14.8C174.133 14.8 173.64 14.8 173.16 14.8C172.68 14.7733 172.2 14.7467 171.72 14.72H171.28C171.227 14.72 171.093 14.72 170.88 14.72C170.667 14.6933 170.52 14.68 170.44 14.68V5.72ZM171.365 10.68H189.125V15.8H182.845V39.08H177.725V15.8H171.365V10.68ZM185.365 1.08H203.125V6.2H196.845V29.48H191.725V6.2H185.365V1.08ZM185.845 5.72H192.205V29H196.365V5.72H202.645V1.56H185.845V5.72ZM204.75 33.96C205.63 33.96 206.483 33.8267 207.31 33.56C208.163 33.2933 208.937 32.9067 209.63 32.4C210.35 31.8933 210.963 31.28 211.47 30.56C211.977 29.84 212.337 29.0133 212.55 28.08L212.35 27.96H204.07V23H206.79C206.123 21.96 205.59 20.84 205.19 19.64C204.817 18.44 204.603 17.1733 204.55 15.84C203.35 15.8933 202.217 16.16 201.15 16.64C200.057 17.12 199.11 17.7733 198.31 18.6C197.51 19.4 196.87 20.3467 196.39 21.44C195.91 22.5067 195.67 23.6533 195.67 24.88C195.67 26.16 195.91 27.36 196.39 28.48C196.87 29.5733 197.523 30.52 198.35 31.32C199.177 32.1467 200.15 32.7867 201.27 33.24C202.363 33.72 203.523 33.96 204.75 33.96ZM218.75 24.36C219.657 24.36 220.537 24.2267 221.39 23.96C222.243 23.6933 223.017 23.3067 223.71 22.8C224.403 22.2667 225.003 21.6267 225.51 20.88C226.017 20.1333 226.377 19.2933 226.59 18.36H218.07V13.4H231.59C231.723 14.0667 231.803 14.64 231.83 15.12C231.883 15.5733 231.91 15.9867 231.91 16.36C231.91 18.2533 231.577 20.0133 230.91 21.64C230.27 23.24 229.363 24.6267 228.19 25.8C227.017 26.9467 225.63 27.8533 224.03 28.52C222.43 29.16 220.683 29.48 218.79 29.48C218.577 29.48 218.35 29.4667 218.11 29.44C217.897 29.44 217.683 29.4267 217.47 29.4C217.123 30.84 216.563 32.1467 215.79 33.32C215.017 34.52 214.083 35.5467 212.99 36.4C211.897 37.2533 210.657 37.9067 209.27 38.36C207.883 38.84 206.39 39.08 204.79 39.08C202.817 39.08 200.963 38.7067 199.23 37.96C197.497 37.24 195.99 36.24 194.71 34.96C193.43 33.68 192.417 32.1733 191.67 30.44C190.923 28.7067 190.55 26.8533 190.55 24.88C190.55 22.9067 190.923 21.0667 191.67 19.36C192.417 17.6267 193.443 16.12 194.75 14.84C196.03 13.56 197.537 12.56 199.27 11.84C201.003 11.0933 202.857 10.72 204.83 10.72H205.27C205.75 9.33333 206.43 8.05333 207.31 6.88C208.19 5.68 209.217 4.66667 210.39 3.84C211.59 2.98667 212.897 2.32 214.31 1.84C215.75 1.36 217.257 1.12 218.83 1.12C222.457 1.12 225.83 2.57333 228.95 5.48L227.23 7.12C226.963 7.38667 226.643 7.70667 226.27 8.08C225.923 8.42667 225.59 8.74667 225.27 9.04C224.203 8.16 223.123 7.48 222.03 7C220.963 6.49333 219.897 6.24 218.83 6.24C217.87 6.24 216.95 6.38667 216.07 6.68C215.217 6.94667 214.417 7.33333 213.67 7.84C212.923 8.34666 212.257 8.94666 211.67 9.64C211.11 10.3333 210.657 11.0933 210.31 11.92C211.883 12.6133 213.43 13.6667 214.95 15.08L213.23 16.72C212.963 16.9867 212.643 17.3067 212.27 17.68C211.923 18.0267 211.59 18.3467 211.27 18.64C210.817 18.2933 210.377 17.9733 209.95 17.68C210.243 18.8 210.737 19.8267 211.43 20.76C212.15 21.6667 212.99 22.4133 213.95 23H217.59C217.643 23.2667 217.683 23.5067 217.71 23.72C217.737 23.9067 217.763 24.1067 217.79 24.32C217.95 24.3467 218.11 24.36 218.27 24.36C218.43 24.36 218.59 24.36 218.75 24.36ZM218.75 24.84C217.443 24.84 216.203 24.6 215.03 24.12C213.883 23.6133 212.87 22.9333 211.99 22.08C211.137 21.2267 210.457 20.2267 209.95 19.08C209.443 17.9067 209.19 16.64 209.19 15.28C209.19 13.9733 209.443 12.7467 209.95 11.6C210.457 10.4267 211.15 9.41333 212.03 8.56C212.91 7.68 213.937 7 215.11 6.52C216.283 6.01333 217.523 5.76 218.83 5.76C219.95 5.76 221.043 6 222.11 6.48C223.203 6.93333 224.257 7.57333 225.27 8.4C225.83 7.89333 226.323 7.42667 226.75 7C227.203 6.54667 227.71 6.05333 228.27 5.52C225.443 2.90666 222.297 1.6 218.83 1.6C216.937 1.6 215.15 1.96 213.47 2.68C211.79 3.37333 210.323 4.34667 209.07 5.6C207.817 6.82667 206.83 8.28 206.11 9.96C205.39 11.6133 205.03 13.3867 205.03 15.28C205.03 17.2 205.39 19 206.11 20.68C206.83 22.3333 207.803 23.7867 209.03 25.04C210.283 26.2667 211.75 27.24 213.43 27.96C215.11 28.6533 216.897 29 218.79 29C220.603 29 222.283 28.6933 223.83 28.08C225.377 27.44 226.71 26.56 227.83 25.44C228.95 24.32 229.83 22.9867 230.47 21.44C231.11 19.8933 231.43 18.2 231.43 16.36C231.43 16.0133 231.417 15.64 231.39 15.24C231.363 14.84 231.297 14.3867 231.19 13.88H218.55V17.88H227.19C227.003 18.9467 226.643 19.9067 226.11 20.76C225.577 21.6133 224.923 22.3467 224.15 22.96C223.403 23.5467 222.563 24.0133 221.63 24.36C220.697 24.68 219.737 24.84 218.75 24.84ZM240.103 17.6C240.369 18.6667 240.796 19.64 241.383 20.52C241.996 21.3733 242.729 22.1067 243.583 22.72C243.316 21.68 242.876 20.72 242.263 19.84C241.676 18.96 240.956 18.2133 240.103 17.6ZM243.223 28.36C241.996 27.8533 240.876 27.1867 239.863 26.36C238.849 25.5067 237.956 24.5467 237.183 23.48C236.436 22.3867 235.836 21.2 235.382 19.92C234.956 18.64 234.716 17.2933 234.663 15.88C233.409 15.9067 232.249 16.1733 231.182 16.68C230.116 17.16 229.182 17.8133 228.382 18.64C227.582 19.4667 226.956 20.4267 226.502 21.52C226.049 22.5867 225.822 23.72 225.822 24.92C225.822 26.2 226.062 27.3867 226.542 28.48C226.996 29.5733 227.636 30.52 228.462 31.32C229.262 32.1467 230.209 32.7867 231.302 33.24C232.396 33.72 233.582 33.96 234.863 33.96C236.783 33.96 238.489 33.44 239.983 32.4C241.476 31.3867 242.556 30.04 243.223 28.36ZM257.863 15.32C257.863 14.0933 257.623 12.9333 257.143 11.84C256.689 10.7467 256.049 9.78667 255.223 8.96C254.423 8.13333 253.476 7.48 252.383 7C251.289 6.52 250.116 6.28 248.863 6.28C247.903 6.28 246.983 6.42667 246.103 6.72C245.223 6.98666 244.423 7.37333 243.703 7.88C242.983 8.38667 242.343 8.98667 241.783 9.68C241.223 10.3733 240.783 11.1333 240.463 11.96C241.663 12.4933 242.769 13.1867 243.783 14.04C244.823 14.8667 245.703 15.8133 246.423 16.88C247.169 17.9467 247.756 19.12 248.183 20.4C248.636 21.6533 248.889 22.9733 248.943 24.36C250.169 24.36 251.329 24.12 252.423 23.64C253.516 23.16 254.463 22.52 255.263 21.72C256.063 20.8933 256.689 19.9333 257.143 18.84C257.623 17.7467 257.863 16.5733 257.863 15.32ZM234.863 10.8C234.943 10.8 235.023 10.8133 235.103 10.84C235.209 10.84 235.303 10.84 235.382 10.84C235.863 9.45333 236.529 8.17333 237.383 7C238.263 5.8 239.289 4.77333 240.463 3.92C241.636 3.06667 242.929 2.4 244.342 1.92C245.783 1.44 247.289 1.2 248.863 1.2C250.809 1.2 252.636 1.57333 254.343 2.32C256.076 3.04 257.583 4.04 258.863 5.32C260.143 6.6 261.143 8.10667 261.863 9.84C262.609 11.5467 262.983 13.3733 262.983 15.32C262.983 17.2933 262.609 19.1467 261.863 20.88C261.143 22.5867 260.143 24.08 258.863 25.36C257.583 26.64 256.076 27.6533 254.343 28.4C252.636 29.12 250.809 29.48 248.863 29.48C248.729 29.48 248.609 29.4667 248.503 29.44C248.423 29.44 248.329 29.44 248.223 29.44C247.743 30.8533 247.063 32.1467 246.183 33.32C245.329 34.4933 244.316 35.5067 243.143 36.36C241.996 37.2133 240.716 37.88 239.303 38.36C237.889 38.84 236.409 39.08 234.863 39.08C232.889 39.08 231.049 38.7067 229.342 37.96C227.609 37.24 226.102 36.24 224.822 34.96C223.542 33.68 222.529 32.1733 221.782 30.44C221.036 28.7333 220.662 26.8933 220.662 24.92C220.662 22.9733 221.036 21.1467 221.782 19.44C222.529 17.7067 223.542 16.2 224.822 14.92C226.102 13.64 227.609 12.64 229.342 11.92C231.049 11.1733 232.889 10.8 234.863 10.8ZM248.863 1.68C246.969 1.68 245.183 2.04 243.503 2.76C241.849 3.48 240.396 4.45333 239.143 5.68C237.916 6.90667 236.943 8.36 236.223 10.04C235.503 11.6933 235.143 13.4533 235.143 15.32C235.143 17.2133 235.503 19 236.223 20.68C236.943 22.3333 237.916 23.7867 239.143 25.04C240.396 26.2667 241.849 27.24 243.503 27.96C245.183 28.6533 246.969 29 248.863 29C250.729 29 252.489 28.6533 254.143 27.96C255.823 27.24 257.276 26.2667 258.503 25.04C259.729 23.7867 260.703 22.3333 261.423 20.68C262.143 19 262.503 17.2133 262.503 15.32C262.503 13.4533 262.143 11.6933 261.423 10.04C260.703 8.36 259.729 6.90667 258.503 5.68C257.276 4.45333 255.823 3.48 254.143 2.76C252.489 2.04 250.729 1.68 248.863 1.68ZM258.343 15.32C258.343 16.6533 258.089 17.9067 257.582 19.08C257.103 20.2267 256.436 21.2267 255.583 22.08C254.729 22.9333 253.716 23.6133 252.543 24.12C251.396 24.6 250.169 24.84 248.863 24.84C247.529 24.84 246.276 24.6 245.103 24.12C243.956 23.6133 242.956 22.9333 242.103 22.08C241.249 21.2267 240.569 20.2267 240.063 19.08C239.583 17.9067 239.342 16.6533 239.342 15.32C239.342 14.0133 239.583 12.7867 240.063 11.64C240.569 10.4933 241.249 9.49333 242.103 8.64C242.956 7.76 243.956 7.06666 245.103 6.56C246.276 6.05333 247.529 5.8 248.863 5.8C250.169 5.8 251.396 6.05333 252.543 6.56C253.716 7.06666 254.729 7.76 255.583 8.64C256.436 9.49333 257.103 10.4933 257.582 11.64C258.089 12.7867 258.343 14.0133 258.343 15.32ZM271.392 17.6C271.658 18.6667 272.085 19.64 272.672 20.52C273.285 21.3733 274.018 22.1067 274.872 22.72C274.605 21.68 274.165 20.72 273.552 19.84C272.965 18.96 272.245 18.2133 271.392 17.6ZM274.512 28.36C273.285 27.8533 272.165 27.1867 271.152 26.36C270.138 25.5067 269.245 24.5467 268.472 23.48C267.725 22.3867 267.125 21.2 266.672 19.92C266.245 18.64 266.005 17.2933 265.952 15.88C264.698 15.9067 263.538 16.1733 262.472 16.68C261.405 17.16 260.472 17.8133 259.672 18.64C258.872 19.4667 258.245 20.4267 257.792 21.52C257.338 22.5867 257.112 23.72 257.112 24.92C257.112 26.2 257.352 27.3867 257.832 28.48C258.285 29.5733 258.925 30.52 259.752 31.32C260.552 32.1467 261.498 32.7867 262.592 33.24C263.685 33.72 264.872 33.96 266.152 33.96C268.072 33.96 269.778 33.44 271.272 32.4C272.765 31.3867 273.845 30.04 274.512 28.36ZM289.152 15.32C289.152 14.0933 288.912 12.9333 288.432 11.84C287.978 10.7467 287.338 9.78667 286.512 8.96C285.712 8.13333 284.765 7.48 283.672 7C282.578 6.52 281.405 6.28 280.152 6.28C279.192 6.28 278.272 6.42667 277.392 6.72C276.512 6.98666 275.712 7.37333 274.992 7.88C274.272 8.38667 273.632 8.98667 273.072 9.68C272.512 10.3733 272.072 11.1333 271.752 11.96C272.952 12.4933 274.058 13.1867 275.072 14.04C276.112 14.8667 276.992 15.8133 277.712 16.88C278.458 17.9467 279.045 19.12 279.472 20.4C279.925 21.6533 280.178 22.9733 280.232 24.36C281.458 24.36 282.618 24.12 283.712 23.64C284.805 23.16 285.752 22.52 286.552 21.72C287.352 20.8933 287.978 19.9333 288.432 18.84C288.912 17.7467 289.152 16.5733 289.152 15.32ZM266.152 10.8C266.232 10.8 266.312 10.8133 266.392 10.84C266.498 10.84 266.592 10.84 266.672 10.84C267.152 9.45333 267.818 8.17333 268.672 7C269.552 5.8 270.578 4.77333 271.752 3.92C272.925 3.06667 274.218 2.4 275.632 1.92C277.072 1.44 278.578 1.2 280.152 1.2C282.098 1.2 283.925 1.57333 285.632 2.32C287.365 3.04 288.872 4.04 290.152 5.32C291.432 6.6 292.432 8.10667 293.152 9.84C293.898 11.5467 294.272 13.3733 294.272 15.32C294.272 17.2933 293.898 19.1467 293.152 20.88C292.432 22.5867 291.432 24.08 290.152 25.36C288.872 26.64 287.365 27.6533 285.632 28.4C283.925 29.12 282.098 29.48 280.152 29.48C280.018 29.48 279.898 29.4667 279.792 29.44C279.712 29.44 279.618 29.44 279.512 29.44C279.032 30.8533 278.352 32.1467 277.472 33.32C276.618 34.4933 275.605 35.5067 274.432 36.36C273.285 37.2133 272.005 37.88 270.592 38.36C269.178 38.84 267.698 39.08 266.152 39.08C264.178 39.08 262.338 38.7067 260.632 37.96C258.898 37.24 257.392 36.24 256.112 34.96C254.832 33.68 253.818 32.1733 253.072 30.44C252.325 28.7333 251.952 26.8933 251.952 24.92C251.952 22.9733 252.325 21.1467 253.072 19.44C253.818 17.7067 254.832 16.2 256.112 14.92C257.392 13.64 258.898 12.64 260.632 11.92C262.338 11.1733 264.178 10.8 266.152 10.8ZM280.152 1.68C278.258 1.68 276.472 2.04 274.792 2.76C273.138 3.48 271.685 4.45333 270.432 5.68C269.205 6.90667 268.232 8.36 267.512 10.04C266.792 11.6933 266.432 13.4533 266.432 15.32C266.432 17.2133 266.792 19 267.512 20.68C268.232 22.3333 269.205 23.7867 270.432 25.04C271.685 26.2667 273.138 27.24 274.792 27.96C276.472 28.6533 278.258 29 280.152 29C282.018 29 283.778 28.6533 285.432 27.96C287.112 27.24 288.565 26.2667 289.792 25.04C291.018 23.7867 291.992 22.3333 292.712 20.68C293.432 19 293.792 17.2133 293.792 15.32C293.792 13.4533 293.432 11.6933 292.712 10.04C291.992 8.36 291.018 6.90667 289.792 5.68C288.565 4.45333 287.112 3.48 285.432 2.76C283.778 2.04 282.018 1.68 280.152 1.68ZM289.632 15.32C289.632 16.6533 289.378 17.9067 288.872 19.08C288.392 20.2267 287.725 21.2267 286.872 22.08C286.018 22.9333 285.005 23.6133 283.832 24.12C282.685 24.6 281.458 24.84 280.152 24.84C278.818 24.84 277.565 24.6 276.392 24.12C275.245 23.6133 274.245 22.9333 273.392 22.08C272.538 21.2267 271.858 20.2267 271.352 19.08C270.872 17.9067 270.632 16.6533 270.632 15.32C270.632 14.0133 270.872 12.7867 271.352 11.64C271.858 10.4933 272.538 9.49333 273.392 8.64C274.245 7.76 275.245 7.06666 276.392 6.56C277.565 6.05333 278.818 5.8 280.152 5.8C281.458 5.8 282.685 6.05333 283.832 6.56C285.005 7.06666 286.018 7.76 286.872 8.64C287.725 9.49333 288.392 10.4933 288.872 11.64C289.378 12.7867 289.632 14.0133 289.632 15.32ZM297.605 29.48V17.44C296.405 16.5333 294.939 16.04 293.205 15.96C292.885 15.9333 292.579 15.92 292.285 15.92C291.965 15.92 291.659 15.92 291.365 15.92H288.765V33.88H293.245C293.539 33.88 293.845 33.84 294.165 33.76C294.485 33.7067 294.765 33.64 295.005 33.56C296.125 33.2133 297.072 32.68 297.845 31.96C298.645 31.24 299.299 30.4133 299.805 29.48H299.725H297.605ZM314.925 15.2C314.925 14 314.752 12.88 314.405 11.84C314.059 10.7733 313.552 9.84 312.885 9.04C312.219 8.24 311.405 7.61333 310.445 7.16C309.485 6.68 308.405 6.41333 307.205 6.36C306.885 6.33333 306.565 6.32 306.245 6.32C305.952 6.32 305.659 6.32 305.365 6.32H302.765V15.08C303.805 16.2533 304.619 17.6133 305.205 19.16C305.819 20.68 306.152 22.3867 306.205 24.28H307.245C307.539 24.28 307.845 24.2533 308.165 24.2C308.485 24.12 308.765 24.04 309.005 23.96C309.965 23.6667 310.805 23.2267 311.525 22.64C312.272 22.0533 312.899 21.3733 313.405 20.6C313.912 19.8 314.285 18.9467 314.525 18.04C314.792 17.1067 314.925 16.16 314.925 15.2ZM320.245 15.32C320.245 17.56 319.899 19.56 319.205 21.32C318.512 23.08 317.525 24.5733 316.245 25.8C314.992 27 313.472 27.92 311.685 28.56C309.899 29.2 307.912 29.52 305.725 29.52H305.645C304.792 32.5867 303.152 34.9467 300.725 36.6C298.299 38.28 295.299 39.12 291.725 39.12H286.965C286.752 39.12 286.552 39.1067 286.365 39.08C286.152 39.08 285.939 39.08 285.725 39.08H283.605V10.72H290.725C290.885 10.72 291.059 10.72 291.245 10.72C291.405 10.6933 291.565 10.68 291.725 10.68C292.819 10.68 293.859 10.7733 294.845 10.96C295.805 11.12 296.725 11.36 297.605 11.68V1.12H304.725C304.885 1.12 305.045 1.12 305.205 1.12C305.392 1.09333 305.565 1.08 305.725 1.08C307.885 1.08 309.859 1.41333 311.645 2.08C313.432 2.74667 314.965 3.70667 316.245 4.96C317.525 6.18667 318.512 7.68 319.205 9.44C319.899 11.1733 320.245 13.1333 320.245 15.32ZM319.765 15.32C319.765 13.2133 319.419 11.32 318.725 9.64C318.059 7.93333 317.112 6.48 315.885 5.28C314.659 4.08 313.179 3.16 311.445 2.52C309.739 1.88 307.832 1.56 305.725 1.56C305.405 1.56 305.072 1.57333 304.725 1.6C304.405 1.6 304.085 1.6 303.765 1.6H298.085V29H299.725C300.125 29 300.512 29 300.885 29C301.285 29.0267 301.645 29.04 301.965 29.04H305.725C307.832 29.04 309.752 28.7333 311.485 28.12C313.219 27.5067 314.699 26.6133 315.925 25.44C317.152 24.24 318.099 22.8 318.765 21.12C319.432 19.4133 319.765 17.48 319.765 15.32ZM315.405 15.2C315.405 16.2133 315.272 17.2 315.005 18.16C314.739 19.12 314.339 20.0133 313.805 20.84C313.272 21.6667 312.619 22.4 311.845 23.04C311.072 23.6533 310.179 24.1067 309.165 24.4C308.872 24.5067 308.552 24.6 308.205 24.68C307.859 24.7333 307.539 24.76 307.245 24.76H302.285V5.84H305.365C305.659 5.84 305.965 5.84 306.285 5.84C306.605 5.84 306.925 5.85333 307.245 5.88H307.205C308.485 5.93333 309.632 6.21333 310.645 6.72C311.685 7.2 312.552 7.86667 313.245 8.72C313.939 9.54667 314.472 10.52 314.845 11.64C315.219 12.7333 315.405 13.92 315.405 15.2ZM318.025 15.68C317.251 15.68 316.598 15.92 316.065 16.4C315.505 16.8533 315.225 17.4667 315.225 18.24C315.225 18.6933 315.345 19.1067 315.585 19.48C315.798 19.8267 316.105 20.1733 316.505 20.52C316.905 20.84 317.371 21.1467 317.905 21.44C318.411 21.7333 318.945 22.0267 319.505 22.32C320.065 22.64 320.625 22.96 321.185 23.28C321.745 23.6 322.278 23.9467 322.785 24.32C323.131 24.08 323.531 23.7867 323.985 23.44C324.438 23.0933 324.851 22.7733 325.225 22.48V22.52L325.985 21.92L326.625 21.56C327.238 22.5733 327.971 23.2933 328.825 23.72C329.705 24.1467 330.531 24.36 331.305 24.36C332.318 24.36 333.158 24.12 333.825 23.64C334.491 23.1333 334.825 22.3467 334.825 21.28C334.825 20.8 334.705 20.3733 334.465 20C334.225 19.6 333.891 19.2267 333.465 18.88C333.038 18.5067 332.545 18.16 331.985 17.84C331.451 17.4933 330.891 17.16 330.305 16.84V16.88C329.505 16.4533 328.705 16 327.905 15.52C327.131 15.0133 326.425 14.4533 325.785 13.84C325.145 13.2 324.625 12.48 324.225 11.68C323.825 10.88 323.625 9.94667 323.625 8.88C323.625 7.6 323.851 6.48 324.305 5.52C324.758 4.53333 325.371 3.72 326.145 3.08C326.918 2.44 327.811 1.96 328.825 1.64C329.865 1.32 330.971 1.16 332.145 1.16C333.318 1.16 334.598 1.46667 335.985 2.08C337.371 2.69333 338.598 3.56 339.665 4.68C339.425 5.02667 339.238 5.29333 339.105 5.48C338.971 5.64 338.811 5.82667 338.625 6.04L337.905 6.96L336.505 8.52C335.785 7.8 335.051 7.21333 334.305 6.76C333.558 6.30667 332.798 6.08 332.025 6.08C331.251 6.08 330.585 6.32 330.025 6.8C329.491 7.25333 329.225 7.86667 329.225 8.64C329.225 9.09333 329.331 9.50667 329.545 9.88C329.785 10.2267 330.105 10.5733 330.505 10.92C330.905 11.24 331.358 11.5467 331.865 11.84C332.398 12.1333 332.945 12.4267 333.505 12.72C334.331 13.1733 335.145 13.6533 335.945 14.16C336.771 14.6667 337.505 15.24 338.145 15.88C338.811 16.4933 339.345 17.2133 339.745 18.04C340.145 18.84 340.345 19.7733 340.345 20.84C340.345 22.2267 340.118 23.4533 339.665 24.52C339.211 25.5867 338.571 26.48 337.745 27.2C336.918 27.92 335.945 28.4667 334.825 28.84C333.705 29.2133 332.478 29.4 331.145 29.4C330.238 29.4 329.331 29.2667 328.425 29C327.545 28.76 326.678 28.3733 325.825 27.84C325.985 28.2133 326.105 28.6133 326.185 29.04C326.291 29.4667 326.345 29.9333 326.345 30.44C326.345 31.8267 326.118 33.0533 325.665 34.12C325.211 35.1867 324.571 36.08 323.745 36.8C322.918 37.52 321.945 38.0667 320.825 38.44C319.705 38.8133 318.478 39 317.145 39C315.571 39 314.025 38.6133 312.505 37.84C310.958 37.0667 309.625 35.8267 308.505 34.12C308.825 33.9067 309.251 33.5867 309.785 33.16C310.318 32.76 310.798 32.4 311.225 32.08V32.12L311.985 31.52L312.625 31.16C313.238 32.1733 313.985 32.8933 314.865 33.32C315.718 33.7467 316.531 33.96 317.305 33.96C318.318 33.96 319.158 33.7067 319.825 33.2C320.491 32.72 320.825 31.9467 320.825 30.88C320.825 30.4 320.705 29.96 320.465 29.56C320.225 29.1867 319.891 28.8267 319.465 28.48C319.038 28.1067 318.558 27.76 318.025 27.44C317.465 27.0933 316.891 26.76 316.305 26.44V26.48C315.505 26.0533 314.718 25.6 313.945 25.12C313.145 24.6133 312.425 24.0533 311.785 23.44C311.145 22.8 310.625 22.08 310.225 21.28C309.825 20.48 309.625 19.5467 309.625 18.48C309.625 17.2 309.851 16.08 310.305 15.12C310.758 14.1333 311.371 13.32 312.145 12.68C312.918 12.04 313.825 11.56 314.865 11.24C315.878 10.92 316.971 10.76 318.145 10.76C319.318 10.76 320.598 11.0667 321.985 11.68C323.371 12.2933 324.598 13.16 325.665 14.28C325.425 14.6267 325.238 14.8933 325.105 15.08C324.971 15.24 324.811 15.4267 324.625 15.64L323.905 16.56L322.505 18.12C321.785 17.4 321.051 16.8133 320.305 16.36C319.558 15.9067 318.798 15.68 318.025 15.68ZM332.025 5.6C332.851 5.6 333.625 5.81333 334.345 6.24C335.091 6.64 335.798 7.17333 336.465 7.84L337.545 6.64H337.505L338.265 5.72V5.76C338.478 5.52 338.625 5.33333 338.705 5.2C338.811 5.06667 338.931 4.90667 339.065 4.72C338.131 3.73333 337.025 2.97333 335.745 2.44C334.465 1.90667 333.265 1.64 332.145 1.64C331.051 1.64 330.011 1.8 329.025 2.12C328.065 2.41333 327.211 2.86667 326.465 3.48C325.745 4.06667 325.171 4.81333 324.745 5.72C324.318 6.62667 324.105 7.68 324.105 8.88C324.105 9.86667 324.291 10.7333 324.665 11.48C325.065 12.2267 325.571 12.9067 326.185 13.52C326.798 14.1067 327.478 14.64 328.225 15.12C328.998 15.5733 329.771 16.0133 330.545 16.44C331.185 16.7867 331.785 17.1333 332.345 17.48C332.931 17.8267 333.438 18.2 333.865 18.6C334.318 18.9733 334.665 19.3867 334.905 19.84C335.171 20.2667 335.305 20.7467 335.305 21.28C335.305 22.5067 334.931 23.4133 334.185 24C333.438 24.56 332.478 24.84 331.305 24.84C330.451 24.84 329.571 24.64 328.665 24.24C327.758 23.84 327.025 23.16 326.465 22.2L326.145 22.4C325.611 22.8 325.078 23.2 324.545 23.6C324.038 24 323.585 24.3467 323.185 24.64C324.145 26.1333 325.331 27.2267 326.745 27.92C328.185 28.5867 329.651 28.92 331.145 28.92C332.398 28.92 333.558 28.7467 334.625 28.4C335.691 28.0533 336.611 27.5467 337.385 26.88C338.158 26.1867 338.758 25.3333 339.185 24.32C339.638 23.3067 339.865 22.1467 339.865 20.84C339.865 19.8267 339.665 18.9467 339.265 18.2C338.891 17.4267 338.385 16.7467 337.745 16.16C337.131 15.5467 336.438 15 335.665 14.52C334.891 14.04 334.105 13.5733 333.305 13.12C332.691 12.8 332.105 12.4933 331.545 12.2C331.011 11.88 330.531 11.5467 330.105 11.2C329.678 10.8267 329.345 10.44 329.105 10.04C328.865 9.61333 328.745 9.14667 328.745 8.64C328.745 7.73333 329.065 7 329.705 6.44C330.371 5.88 331.145 5.6 332.025 5.6Z" fill="white"/>
</svg>
